# xmcd CD database file
#
# Track frame offsets:
#	150
#	10374
#	21023
#	31921
#	43980
#	52513
#	64300
#	71074
#	79778
#	90352
#	101380
#	111812
#
# Disc length: 1627 seconds
#
# Revision: 1
# Processed by: cddbd v1.5.1PL2 Copyright (c) Steve Scherf et al.
# Submitted via: CDex 1.51
#
DISCID=8e06590c
DTITLE=Waylon Jennings - Burning Memories
DYEAR=1900
DGENRE=Country
TTITLE0=White Lightning
TTITLE1=Sally Was A Good Girl
TTITLE2=Dream Baby
TTITLE3=Don't Think Twice
TTITLE4=Abilene
TTITLE5=Crying
TTITLE6=It's So Easy
TTITLE7=Love's Gonna Live Here
TTITLE8=Burning Memories
TTITLE9=Big Mamou
TTITLE10=Money
TTITLE11=Lorena
EXTD=
EXTT0=
EXTT1=
EXTT2=
EXTT3=
EXTT4=
EXTT5=
EXTT6=
EXTT7=
EXTT8=
EXTT9=
EXTT10=
EXTT11=
PLAYORDER=
